<svg xmlns="http://www.w3.org/2000/svg" viewBox="0 0 1200 360" role="img" aria-labelledby="title desc">
  <title id="title">ThumbGate wordmark</title>
  <desc id="desc">ThumbGate business wordmark with gate-and-signal mark.</desc>
  <defs>
    <linearGradient id="tg-cyan" x1="70" y1="70" x2="290" y2="290" gradientUnits="userSpaceOnUse">
      <stop offset="0" stop-color="#22d3ee"/>
      <stop offset="1" stop-color="#0891b2"/>
    </linearGradient>
    <linearGradient id="tg-signal" x1="112" y1="230" x2="252" y2="100" gradientUnits="userSpaceOnUse">
      <stop offset="0" stop-color="#4ade80"/>
      <stop offset="1" stop-color="#22d3ee"/>
    </linearGradient>
  </defs>
  <rect width="1200" height="360" rx="56" fill="#ffffff"/>
  <g transform="translate(54 54)">
    <rect width="252" height="252" rx="56" fill="#0a0d12"/>
    <path d="M62 66h128c18 0 32 14 32 32v98c0 18-14 32-32 32H62c-18 0-32-14-32-32V98c0-18 14-32 32-32Z" fill="#111827" stroke="url(#tg-cyan)" stroke-width="10"/>
    <path d="M76 104h28v84H76v-84Zm72 0h28v84h-28v-84Z" fill="url(#tg-cyan)"/>
    <path d="M60 208c26-46 56-72 91-78 16-3 28-1 37 4-20 10-37 24-50 41-14 18-38 29-78 33Z" fill="url(#tg-signal)"/>
    <circle cx="194" cy="90" r="15" fill="#4ade80"/>
    <circle cx="58" cy="202" r="11" fill="#fb7185"/>
  </g>
  <text x="356" y="176" fill="#0a0d12" font-family="Inter, -apple-system, BlinkMacSystemFont, Segoe UI, sans-serif" font-size="86" font-weight="800" letter-spacing="0">ThumbGate</text>
  <text x="360" y="230" fill="#475569" font-family="Inter, -apple-system, BlinkMacSystemFont, Segoe UI, sans-serif" font-size="32" font-weight="600" letter-spacing="0">Pre-Action Gates for AI coding agents</text>
</svg>
