<svg xmlns="http://www.w3.org/2000/svg" viewBox="0 0 1048 576" role="img" aria-labelledby="title desc">
  <title id="title">ThumbGate Operator Lab cover</title>
  <desc id="desc">Cover artwork for the ThumbGate Operator Lab Skool community.</desc>
  <defs>
    <linearGradient id="bg" x1="0" y1="0" x2="1048" y2="576" gradientUnits="userSpaceOnUse">
      <stop offset="0" stop-color="#061015"/>
      <stop offset="0.58" stop-color="#0b1820"/>
      <stop offset="1" stop-color="#12323a"/>
    </linearGradient>
    <linearGradient id="gate" x1="0" y1="0" x2="1" y2="1">
      <stop offset="0" stop-color="#8cf5d1"/>
      <stop offset="1" stop-color="#22d3ee"/>
    </linearGradient>
    <filter id="soft" x="-20%" y="-20%" width="140%" height="140%">
      <feDropShadow dx="0" dy="18" stdDeviation="18" flood-color="#000000" flood-opacity="0.35"/>
    </filter>
  </defs>
  <rect width="1048" height="576" fill="url(#bg)"/>
  <path d="M700 0h348v576H756c-58-76-87-165-87-267 0-119 10-221 31-309z" fill="#0e252e" opacity="0.72"/>
  <g opacity="0.18" stroke="#8cf5d1" stroke-width="1">
    <path d="M72 120h360"/>
    <path d="M72 180h260"/>
    <path d="M72 240h320"/>
    <path d="M72 300h230"/>
    <path d="M72 360h300"/>
    <path d="M690 140h230"/>
    <path d="M650 208h300"/>
    <path d="M720 276h210"/>
    <path d="M670 344h270"/>
  </g>
  <g transform="translate(690 154)" filter="url(#soft)">
    <rect width="220" height="220" rx="48" fill="#061015"/>
    <rect x="28" y="28" width="164" height="164" rx="42" fill="#0b1820" stroke="url(#gate)" stroke-width="12"/>
    <path d="M68 148V84c0-22 18-40 40-40h20c22 0 40 18 40 40v64" fill="none" stroke="#8cf5d1" stroke-width="16" stroke-linecap="round" stroke-linejoin="round"/>
    <text x="110" y="132" text-anchor="middle" fill="#e7fbff" font-family="Arial" font-size="58" font-weight="900">TG</text>
    <rect x="66" y="150" width="88" height="14" rx="7" fill="#22d3ee"/>
  </g>
  <g font-family="Arial">
    <text x="72" y="178" fill="#8cf5d1" font-size="26" font-weight="800" letter-spacing="0">ThumbGate Operator Lab</text>
    <text x="72" y="258" fill="#f5f7fb" font-size="54" font-weight="900" letter-spacing="0">Stop repeated</text>
    <text x="72" y="322" fill="#f5f7fb" font-size="54" font-weight="900" letter-spacing="0">AI-agent mistakes</text>
    <text x="72" y="392" fill="#b9d7de" font-size="26" font-weight="600" letter-spacing="0">Turn feedback into prevention rules</text>
    <text x="72" y="432" fill="#b9d7de" font-size="26" font-weight="600" letter-spacing="0">and pre-action gates.</text>
    <text x="72" y="500" fill="#22d3ee" font-size="22" font-weight="800" letter-spacing="0">npx thumbgate init</text>
  </g>
</svg>
